<svg width="24" height="24" viewBox="0 0 24 24" fill="none" xmlns="http://www.w3.org/2000/svg">
<g clip-path="url(#clip0_207_1650)">
<path d="M7.8999 12C7.8999 9.67618 9.74271 7.83337 12.0666 7.83337C14.3904 7.83337 16.2332 9.67618 16.2332 12C16.2332 14.3239 14.3904 16.1667 12.0666 16.1667C9.74271 16.1667 7.8999 14.3239 7.8999 12ZM8.23324 12C8.23324 14.1428 9.92376 15.8334 12.0666 15.8334C14.2094 15.8334 15.8999 14.1428 15.8999 12C15.8999 9.85723 14.2094 8.16671 12.0666 8.16671C9.92376 8.16671 8.23324 9.85723 8.23324 12Z" fill="#323232" stroke="#F6F6F6"/>
<path d="M21.7136 10.2761L21.7214 10.2786L21.7292 10.2808C21.9735 10.3506 22.1666 10.6151 22.1666 10.8667V13.1334C22.1666 13.362 21.9942 13.5839 21.7792 13.6576L19.8517 14.2558L19.6242 14.3265L19.5357 14.5477L19.1357 15.5477L19.0489 15.7647L19.1597 15.9704L20.0888 17.696C20.1942 17.9132 20.1514 18.2081 19.9797 18.3798L18.3797 19.9798C18.208 20.1515 17.9131 20.1943 17.6958 20.0889L15.9703 19.1598L15.7645 19.049L15.5476 19.1358L14.5476 19.5358L14.3263 19.6243L14.2557 19.8518L13.6575 21.7794C13.5838 21.9944 13.3618 22.1667 13.1333 22.1667H10.8666C10.638 22.1667 10.4161 21.9944 10.3423 21.7794L9.74412 19.8518L9.6735 19.6243L9.45228 19.5358L8.45228 19.1358L8.2353 19.049L8.02954 19.1598L6.30399 20.0889C6.08676 20.1943 5.79186 20.1515 5.62014 19.9798L4.02014 18.3798C3.84842 18.2081 3.80566 17.9132 3.91101 17.696L4.84015 15.9704L4.95095 15.7647L4.86416 15.5477L4.46416 14.5477L4.37682 14.3293L4.15292 14.2574L2.28626 13.6574L2.27847 13.6549L2.27061 13.6526C1.99046 13.5726 1.83325 13.3488 1.83325 13.1334V10.8667C1.83325 10.6374 2.00665 10.4148 2.22258 10.3418L4.08626 9.74272L4.31015 9.67076L4.39749 9.4524C4.46711 9.27835 4.53603 9.08883 4.60161 8.90847L4.60315 8.90425C4.67044 8.71921 4.73432 8.54366 4.79749 8.38574L4.88266 8.17282L4.77686 7.96936L3.91233 6.30681C3.80531 6.08933 3.84771 5.79269 4.02014 5.62026L5.62014 4.02026C5.79185 3.84855 6.08675 3.80579 6.30398 3.91113L8.02954 4.84028L8.27995 4.97512L8.52383 4.82879C8.81008 4.65704 9.0846 4.54838 9.41545 4.49324L9.71602 4.44314L9.80927 4.15305L10.4093 2.28638L10.4222 2.24604L10.4282 2.20408C10.4585 1.99239 10.6399 1.83337 10.8666 1.83337H13.1333C13.3625 1.83337 13.5852 2.00678 13.6582 2.2227L14.2572 4.08638L14.3292 4.31027L14.5476 4.39761L15.5476 4.79761L15.7645 4.88441L15.9703 4.77361L17.6959 3.84447C17.9131 3.73912 18.208 3.78188 18.3797 3.95359L19.9797 5.55359C20.1514 5.72531 20.1942 6.02021 20.0888 6.23744L19.1597 7.96299L19.0489 8.16875L19.1357 8.38574L19.5357 9.38574L19.623 9.60409L19.8469 9.67605L21.7136 10.2761ZM21.4794 13.4116L21.8333 13.3034V12.9334V11.0667V10.6967L21.4794 10.5885L19.365 9.94247L19.3569 9.90198L19.3529 9.88214L19.3473 9.86268C19.2019 9.35349 18.9852 8.84984 18.7007 8.35197L18.7008 8.35191L18.6953 8.34279L18.6426 8.25488L19.7055 6.30613L19.8847 5.9777L19.6201 5.71315L18.2868 4.37982L18.0223 4.11528L17.6938 4.29443L15.7451 5.35738L15.6572 5.30463L15.6572 5.30453L15.648 5.29925C15.1583 5.01943 14.663 4.80524 14.1624 4.65984L14.0725 4.62388L13.4102 2.51679L13.3002 2.16671H12.9333H11.0666H10.6996L10.5896 2.51679L9.92736 4.62388L9.84505 4.6568C9.27489 4.8028 8.77574 5.01893 8.28518 5.29925L8.28513 5.29915L8.27601 5.30463L8.19181 5.35514L6.31172 4.29759L5.98119 4.11166L5.71303 4.37982L4.3797 5.71315L4.12162 5.97123L4.28876 6.29569L5.2946 8.24819L5.23784 8.34279L5.23774 8.34273L5.23246 8.35197C4.95214 8.84253 4.73601 9.34168 4.59001 9.91184L4.5592 9.98888L2.5255 10.587L2.16659 10.6926V11.0667V12.9334V13.3034L2.52048 13.4116L4.63486 14.0576L4.64296 14.0981L4.64693 14.1179L4.65249 14.1374C4.79797 14.6466 5.01463 15.1502 5.29913 15.6481L5.29903 15.6482L5.30451 15.6573L5.35726 15.7452L4.2943 17.6939L4.11516 18.0224L4.3797 18.2869L5.71303 19.6203L5.97757 19.8848L6.30601 19.7057L8.25475 18.6427L8.34267 18.6955L8.37177 18.7129L8.40296 18.7263L9.80296 19.3263L9.85081 19.3468L9.90186 19.357L9.94235 19.3651L10.5884 21.4795L10.6965 21.8334H11.0666H12.9333H13.3033L13.4114 21.4795L14.0575 19.3651L14.098 19.357L14.1178 19.353L14.1373 19.3475C14.6465 19.202 15.1501 18.9853 15.648 18.7008L15.648 18.7009L15.6572 18.6955L15.7451 18.6427L17.6938 19.7057L18.0223 19.8848L18.2868 19.6203L19.6201 18.2869L19.8847 18.0224L19.7055 17.6939L18.6426 15.7452L18.6953 15.6573L18.7128 15.6282L18.7262 15.597L19.3262 14.197L19.3467 14.1491L19.3569 14.0981L19.365 14.0576L21.4794 13.4116Z" fill="#323232" stroke="#F6F6F6"/>
</g>
<defs>
<clipPath id="clip0_207_1650">
<rect width="24" height="24" fill="white"/>
</clipPath>
</defs>
</svg>
