<svg width="39" height="39" viewBox="0 0 39 39" fill="none" xmlns="http://www.w3.org/2000/svg">
<path d="M38.4909 19.8091C38.4909 18.2158 38.3617 17.053 38.0819 15.8473H19.8876V23.0388H30.5672C30.352 24.826 29.1893 27.5174 26.6054 29.326L26.5692 29.5668L32.3219 34.0233L32.7204 34.0631C36.3808 30.6826 38.4909 25.7087 38.4909 19.8091Z" fill="#4285F4"/>
<path d="M19.8876 38.757C25.1197 38.757 29.5121 37.0344 32.7204 34.0632L26.6054 29.3261C24.969 30.4673 22.7728 31.2639 19.8876 31.2639C14.7631 31.2639 10.4137 27.8835 8.86327 23.2112L8.63601 23.2305L2.65428 27.8598L2.57605 28.0773C5.76271 34.4075 12.3084 38.757 19.8876 38.757Z" fill="#34A853"/>
<path d="M8.86324 23.2111C8.45415 22.0054 8.21739 20.7134 8.21739 19.3785C8.21739 18.0434 8.45415 16.7516 8.84172 15.5458L8.83088 15.289L2.77419 10.5853L2.57603 10.6796C1.26265 13.3065 0.509033 16.2564 0.509033 19.3785C0.509033 22.5006 1.26265 25.4503 2.57603 28.0772L8.86324 23.2111Z" fill="#FBBC05"/>
<path d="M19.8876 7.49298C23.5264 7.49298 25.9809 9.06478 27.3805 10.3783L32.8496 5.03841C29.4907 1.91633 25.1197 0 19.8876 0C12.3084 0 5.76271 4.34937 2.57605 10.6796L8.84174 15.5459C10.4137 10.8735 14.7631 7.49298 19.8876 7.49298Z" fill="#EB4335"/>
</svg>
