<svg width="232" height="173" viewBox="0 0 232 173" fill="none" xmlns="http://www.w3.org/2000/svg">
<path d="M232 151.914H0V152.03H232V151.914Z" fill="#EBEBEB"/>
<path d="M208.754 159.379H193.386V159.495H208.754V159.379Z" fill="#EBEBEB"/>
<path d="M153.686 160.641H149.654V160.757H153.686V160.641Z" fill="#EBEBEB"/>
<path d="M192.922 155.073H184.018V155.189H192.922V155.073Z" fill="#EBEBEB"/>
<path d="M44.3817 155.853H24.3416V155.969H44.3817V155.853Z" fill="#EBEBEB"/>
<path d="M51.453 155.853H48.5159V155.969H51.453V155.853Z" fill="#EBEBEB"/>
<path d="M104.47 157.811H61.0022V157.927H104.47V157.811Z" fill="#EBEBEB"/>
<path d="M109.968 131.219H20.3743C19.6724 131.218 18.9997 130.938 18.5039 130.442C18.008 129.945 17.7295 129.272 17.7295 128.57V2.62624C17.7356 1.9284 18.0168 1.26114 18.512 0.769413C19.0072 0.277685 19.6764 0.00119544 20.3743 0H109.968C110.671 0 111.345 0.279137 111.841 0.776003C112.338 1.27287 112.618 1.94676 112.618 2.64944V128.57C112.618 129.272 112.338 129.946 111.841 130.443C111.345 130.94 110.671 131.219 109.968 131.219ZM20.3743 0.0928003C19.7032 0.0940295 19.06 0.361486 18.5859 0.836465C18.1118 1.31144 17.8455 1.95513 17.8455 2.62624V128.57C17.8455 129.241 18.1118 129.885 18.5859 130.36C19.06 130.835 19.7032 131.102 20.3743 131.103H109.968C110.64 131.102 111.283 130.835 111.758 130.36C112.233 129.885 112.5 129.241 112.502 128.57V2.62624C112.5 1.95471 112.233 1.31103 111.758 0.836182C111.283 0.361335 110.64 0.0940269 109.968 0.0928003H20.3743Z" fill="#EBEBEB"/>
<path d="M210.336 131.219H120.737C120.035 131.218 119.362 130.938 118.865 130.442C118.369 129.945 118.089 129.272 118.088 128.57V2.62624C118.095 1.92797 118.377 1.26072 118.873 0.769123C119.369 0.277522 120.039 0.00118241 120.737 0H210.336C211.033 0.00241489 211.701 0.279444 212.195 0.771042C212.689 1.26264 212.97 1.9292 212.976 2.62624V128.57C212.976 129.271 212.698 129.943 212.203 130.44C211.708 130.937 211.037 131.217 210.336 131.219ZM120.737 0.0928003C120.066 0.0940269 119.422 0.361335 118.947 0.836182C118.472 1.31103 118.205 1.95471 118.204 2.62624V128.57C118.205 129.241 118.472 129.885 118.947 130.36C119.422 130.835 120.066 131.102 120.737 131.103H210.336C211.007 131.102 211.651 130.835 212.126 130.36C212.601 129.885 212.868 129.241 212.869 128.57V2.62624C212.868 1.95471 212.601 1.31103 212.126 0.836182C211.651 0.361335 211.007 0.0940269 210.336 0.0928003H120.737Z" fill="#EBEBEB"/>
<path d="M182.389 9.81824H46.9985V73.1635H182.389V9.81824Z" fill="#E6E6E6"/>
<path d="M184.426 9.81824H47.9497V73.1635H184.426V9.81824Z" fill="#F0F0F0"/>
<path d="M182.389 73.1636H46.9985V76.393H182.389V73.1636Z" fill="#E6E6E6"/>
<path d="M187.823 73.1636H51.3462V76.393H187.823V73.1636Z" fill="#F0F0F0"/>
<path d="M181.573 70.31V12.6765L50.808 12.6765V70.31H181.573Z" fill="#FAFAFA"/>
<path d="M64.8347 70.31L72.783 12.6765H85.1858L77.2374 70.31H64.8347Z" fill="white"/>
<path d="M52.1258 67.4656C52.0716 67.4656 52.0197 67.4441 51.9814 67.4059C51.9431 67.3676 51.9216 67.3156 51.9216 67.2615V14.5325C51.9216 14.4784 51.9431 14.4265 51.9814 14.3882C52.0197 14.3499 52.0716 14.3284 52.1258 14.3284C52.1526 14.3284 52.1791 14.3336 52.2039 14.3439C52.2287 14.3542 52.2512 14.3692 52.2702 14.3882C52.2891 14.4071 52.3041 14.4296 52.3144 14.4544C52.3247 14.4792 52.3299 14.5057 52.3299 14.5325V67.2801C52.3264 67.3313 52.3032 67.3793 52.2651 67.4138C52.2271 67.4484 52.1772 67.467 52.1258 67.4656Z" fill="#F0F0F0"/>
<path d="M79.9009 70.31L87.8492 12.6765H92.6841L84.7358 70.31H79.9009Z" fill="white"/>
<path d="M181.573 70.31V12.6765H181.211V70.31H181.573Z" fill="#E6E6E6"/>
<path opacity="0.6" d="M185.099 16.9824H49.713L49.4485 13.7854H184.839L185.099 16.9824Z" fill="#EBEBEB"/>
<path opacity="0.6" d="M185.099 22.221H49.713L49.4485 19.024H184.839L185.099 22.221Z" fill="#EBEBEB"/>
<path opacity="0.6" d="M185.099 27.4642H49.713L49.4485 24.2672H184.839L185.099 27.4642Z" fill="#EBEBEB"/>
<path opacity="0.6" d="M185.099 32.7027H49.713L49.4485 29.5057H184.839L185.099 32.7027Z" fill="#EBEBEB"/>
<path opacity="0.6" d="M185.099 37.946H49.713L49.4485 34.749H184.839L185.099 37.946Z" fill="#EBEBEB"/>
<path opacity="0.6" d="M185.099 43.1845H49.713L49.4485 39.9875H184.839L185.099 43.1845Z" fill="#EBEBEB"/>
<path d="M203.696 89.088H183.034V151.914H203.696V89.088Z" fill="#E6E6E6"/>
<path d="M198.179 151.914H203.696V143.241H192.393L198.179 151.914Z" fill="#FAFAFA"/>
<path d="M147.362 89.088H126.7V151.914H147.362V89.088Z" fill="#E6E6E6"/>
<path d="M203.696 89.088H142.545V148.93H203.696V89.088Z" fill="#FAFAFA"/>
<path d="M148.062 151.914H142.545V143.241H153.848L148.062 151.914Z" fill="#FAFAFA"/>
<path d="M199.413 111.388H146.823V126.361H199.413V111.388Z" fill="#F0F0F0"/>
<path d="M199.413 129.563H146.823V144.536H199.413V129.563Z" fill="#F0F0F0"/>
<path d="M155.087 110.089H191.168V110.817C191.168 111.392 190.94 111.943 190.533 112.349C190.127 112.756 189.576 112.984 189.001 112.984H157.259C156.684 112.984 156.133 112.756 155.727 112.349C155.32 111.943 155.092 111.392 155.092 110.817V110.089H155.087Z" fill="#FAFAFA"/>
<path d="M199.413 93.2084H146.823V108.182H199.413V93.2084Z" fill="#F0F0F0"/>
<path d="M155.087 91.9138H191.168V92.6423C191.168 93.217 190.94 93.7681 190.533 94.1745C190.127 94.5809 189.576 94.8092 189.001 94.8092H157.259C156.684 94.8092 156.133 94.5809 155.727 94.1745C155.32 93.7681 155.092 93.217 155.092 92.6423V91.9138H155.087Z" fill="#FAFAFA"/>
<path d="M155.087 128.264H191.168V128.992C191.168 129.567 190.94 130.118 190.533 130.524C190.127 130.931 189.576 131.159 189.001 131.159H157.259C156.684 131.159 156.133 130.931 155.727 130.524C155.32 130.118 155.092 129.567 155.092 128.992V128.264H155.087Z" fill="#FAFAFA"/>
<path d="M24.787 102.484C25.9377 99.1753 34.995 103.671 38.707 109.147C41.1615 112.794 42.6603 116.687 43.347 121.916C43.2635 115.949 43.1707 109.541 43.0779 103.491C42.3308 101.983 40.6279 98.5025 39.4076 95.7464C35.3244 86.5499 25.6175 83.1256 22.2396 77.3209C17.8455 69.7113 17.8734 58.2969 21.6132 54.1859C24.8612 50.6038 35.626 74.8014 36.8417 77.5065C41.0177 86.7865 42.2241 93.7047 43.0036 100.391C42.9155 94.707 42.8319 89.4916 42.7623 85.4641C42.535 72.3329 42.2473 68.1105 42.1174 66.8113C41.6534 66.1756 41.1383 65.4193 40.8275 65.0388C38.2244 61.6841 32.443 57.6937 29.5569 52.8171C25.3391 45.6993 26.0212 37.1803 28.9769 34.0065C32.095 30.6889 37.5841 38.5119 40.4655 46.2979C43.347 54.0838 42.1267 61.4985 42.9433 67.9528C43.115 69.2148 43.2867 74.0219 43.4537 80.6895C44.3353 73.5161 46.0892 68.7091 49.3372 64.2315C53.3369 58.7238 56.7891 52.019 60.0835 52.8867C63.3779 53.7543 61.6054 62.6307 58.9977 68.8575C56.6777 74.4023 45.2262 79.9379 43.5372 84.3969C43.7367 93.4356 43.9131 104.883 44.043 115.541C44.9431 110.033 44.3214 109.574 48.0241 101.157C50.2235 96.1454 59.239 89.9696 60.3155 93.4124C61.3919 96.8553 59.754 103.361 56.3529 107.917C53.606 111.597 47.5369 111.592 46.1031 113.87C45.7737 114.404 44.7111 116.445 44.0662 117.615C44.21 130.63 44.2796 142.114 44.2054 146.03L43.6115 146.072C43.6439 145.06 43.5697 138.439 43.4537 129.679C41.9735 125.039 32.0161 122.301 28.9398 117.452C25.7196 112.367 23.4043 106.446 24.787 102.484Z" fill="#E6E6E6"/>
<path d="M34.1504 151.914H53.2672C53.7737 151.913 54.2645 151.738 54.6568 151.418C55.049 151.097 55.3187 150.651 55.4202 150.155L56.7751 143.464H30.624L32.016 150.155C32.1169 150.648 32.3838 151.092 32.7722 151.412C33.1607 151.732 33.6471 151.909 34.1504 151.914Z" fill="#F0F0F0"/>
<path d="M30.095 146.058H57.3225C57.6383 146.058 57.9429 145.941 58.1782 145.731C58.4136 145.52 58.5632 145.23 58.5985 144.917L59.1553 139.97C59.1749 139.791 59.1564 139.61 59.1012 139.438C59.046 139.266 58.9553 139.108 58.835 138.973C58.7146 138.839 58.5673 138.732 58.4027 138.658C58.238 138.584 58.0597 138.546 57.8793 138.546H29.5382C29.3578 138.546 29.1795 138.584 29.0149 138.658C28.8502 138.732 28.7029 138.839 28.5826 138.973C28.4622 139.108 28.3715 139.266 28.3163 139.438C28.2611 139.61 28.2427 139.791 28.2622 139.97L28.819 144.917C28.8543 145.23 29.0039 145.52 29.2393 145.731C29.4746 145.941 29.7792 146.058 30.095 146.058Z" fill="#F0F0F0"/>
<path d="M82.5179 121.856H66.1804V151.914H82.5179V121.856Z" fill="#E0E0E0"/>
<path d="M124.157 151.914H69.4562L63.7073 111.128H118.408L124.157 151.914Z" fill="#E6E6E6"/>
<path d="M132.138 151.914H71.6276L65.8833 111.128H126.389L132.138 151.914Z" fill="#F0F0F0"/>
<path d="M77.5483 145.538L72.7087 117.503H120.468L125.308 145.538H77.5483Z" fill="white"/>
<path d="M98.071 145.538L81.8403 117.503H86.9304L103.166 145.538H98.071Z" fill="#FAFAFA"/>
<path d="M105.323 145.538L89.0879 117.503H97.774L114.005 145.538H105.323Z" fill="#FAFAFA"/>
<path d="M116 172.868C165.686 172.868 205.965 170.516 205.965 167.615C205.965 164.715 165.686 162.363 116 162.363C66.3138 162.363 26.0352 164.715 26.0352 167.615C26.0352 170.516 66.3138 172.868 116 172.868Z" fill="#F5F5F5"/>
<path d="M35.8534 77.2699C35.8035 77.2702 35.7554 77.2517 35.7185 77.2182C35.6816 77.1847 35.6585 77.1386 35.6539 77.089L34.6238 64.7002C34.6212 64.65 34.6381 64.6007 34.6709 64.5627C34.7038 64.5246 34.7501 64.5007 34.8001 64.496C34.8523 64.4922 34.904 64.509 34.9439 64.5428C34.9838 64.5767 35.0088 64.6249 35.0136 64.677L36.0436 77.0658C36.0475 77.118 36.0307 77.1696 35.9968 77.2095C35.963 77.2495 35.9148 77.2745 35.8627 77.2792L35.8534 77.2699Z" fill="#00C2FF"/>
<path d="M36.4659 84.6289C36.4161 84.6292 36.3679 84.6107 36.331 84.5772C36.2941 84.5437 36.271 84.4976 36.2664 84.448L35.9555 80.6989C35.953 80.6729 35.9557 80.6467 35.9635 80.6218C35.9712 80.5968 35.9839 80.5737 36.0008 80.5538C36.0177 80.5339 36.0384 80.5176 36.0617 80.5059C36.085 80.4941 36.1104 80.4872 36.1365 80.4854C36.1625 80.4829 36.1887 80.4856 36.2136 80.4934C36.2385 80.5011 36.2616 80.5139 36.2815 80.5307C36.3014 80.5476 36.3177 80.5683 36.3295 80.5916C36.3412 80.6149 36.3482 80.6403 36.3499 80.6664L36.6608 84.4155C36.6647 84.4677 36.6479 84.5193 36.614 84.5593C36.5802 84.5992 36.532 84.6242 36.4798 84.6289H36.4659Z" fill="#00C2FF"/>
<path d="M140.852 119.884H45.0452C43.8381 119.86 42.6816 119.395 41.7948 118.575C40.908 117.756 40.3525 116.64 40.2335 115.439L34.8372 50.576C34.7795 50.0095 34.8424 49.4372 35.0216 48.8966C35.2009 48.3561 35.4924 47.8596 35.8772 47.4398C36.262 47.02 36.7312 46.6863 37.2541 46.4607C37.777 46.2351 38.3417 46.1227 38.9111 46.1309H134.713C135.921 46.1544 137.078 46.6198 137.965 47.439C138.853 48.2581 139.409 49.3742 139.529 50.576L144.926 115.429C144.984 115.996 144.922 116.569 144.743 117.111C144.564 117.652 144.273 118.149 143.888 118.57C143.503 118.991 143.034 119.325 142.51 119.552C141.987 119.778 141.422 119.891 140.852 119.884Z" fill="white"/>
<path d="M140.852 120.069H45.0451C43.791 120.049 42.5883 119.567 41.6665 118.717C40.7448 117.866 40.1686 116.706 40.0478 115.457L34.6515 50.5992C34.597 50.0074 34.6667 49.4108 34.8561 48.8475C35.0454 48.2842 35.3503 47.7667 35.7512 47.328C36.1501 46.8864 36.6378 46.5341 37.1823 46.2942C37.7269 46.0543 38.316 45.9323 38.9111 45.936H134.713C135.972 45.956 137.18 46.4409 138.103 47.2974C139.027 48.154 139.601 49.3217 139.715 50.576L145.107 115.429C145.166 116.021 145.1 116.618 144.913 117.182C144.725 117.746 144.421 118.264 144.019 118.703C143.617 119.141 143.127 119.489 142.581 119.724C142.036 119.96 141.446 120.077 140.852 120.069ZM38.9111 46.3258C38.3664 46.3169 37.8261 46.4237 37.3257 46.6391C36.8254 46.8545 36.3765 47.1735 36.0086 47.5752C35.6406 47.9769 35.3621 48.4521 35.1914 48.9693C35.0206 49.4866 34.9616 50.0342 35.0181 50.576L40.4144 115.425C40.5292 116.582 41.0653 117.657 41.9208 118.445C42.7763 119.233 43.8915 119.679 45.0544 119.698H140.852C141.395 119.706 141.934 119.599 142.433 119.384C142.932 119.169 143.38 118.851 143.747 118.45C144.115 118.049 144.393 117.576 144.564 117.06C144.735 116.544 144.795 115.998 144.74 115.457L139.344 50.5992C139.23 49.4414 138.694 48.366 137.839 47.5779C136.983 46.7898 135.867 46.3441 134.704 46.3258H38.9111Z" fill="#00C2FF"/>
<path d="M134.713 46.1402H38.9111C38.3426 46.1322 37.7787 46.2443 37.2566 46.4694C36.7344 46.6944 36.2656 47.0272 35.881 47.446C35.4964 47.8648 35.2046 48.3601 35.0247 48.8995C34.8448 49.4389 34.7809 50.0102 34.8372 50.576H139.53C139.407 49.3759 138.85 48.262 137.963 47.4448C137.075 46.6275 135.919 46.1634 134.713 46.1402Z" fill="#00C2FF"/>
<path d="M41.1522 48.3627C41.1654 48.485 41.1524 48.6087 41.1142 48.7256C41.0759 48.8425 41.0132 48.9499 40.9303 49.0407C40.8474 49.1315 40.7461 49.2037 40.6332 49.2524C40.5202 49.3011 40.3982 49.3253 40.2753 49.3232C40.0146 49.3177 39.765 49.217 39.5735 49.04C39.382 48.8631 39.2619 48.6222 39.2359 48.3627C39.2235 48.2406 39.237 48.1172 39.2755 48.0007C39.3141 47.8841 39.3768 47.777 39.4596 47.6864C39.5423 47.5957 39.6433 47.5235 39.7559 47.4746C39.8685 47.4256 39.9901 47.401 40.1129 47.4023C40.3742 47.4057 40.6249 47.5058 40.8168 47.6831C41.0087 47.8605 41.1282 48.1026 41.1522 48.3627Z" fill="white"/>
<path d="M45.0499 48.3627C45.0631 48.485 45.0501 48.6087 45.0119 48.7256C44.9736 48.8425 44.9109 48.9499 44.828 49.0407C44.7451 49.1315 44.6438 49.2037 44.5309 49.2524C44.4179 49.3011 44.2959 49.3253 44.173 49.3232C43.9156 49.3133 43.6704 49.2106 43.4828 49.0341C43.2952 48.8575 43.1777 48.6191 43.1522 48.3627C43.1398 48.2406 43.1533 48.1172 43.1918 48.0007C43.2303 47.8841 43.2931 47.777 43.3758 47.6864C43.4586 47.5957 43.5596 47.5235 43.6722 47.4746C43.7847 47.4256 43.9064 47.401 44.0291 47.4023C44.2872 47.4102 44.5334 47.5123 44.7214 47.6892C44.9094 47.8661 45.0263 48.1057 45.0499 48.3627Z" fill="white"/>
<path d="M48.9474 48.3627C48.9606 48.485 48.9476 48.6087 48.9093 48.7256C48.8711 48.8425 48.8084 48.9499 48.7255 49.0407C48.6426 49.1315 48.5413 49.2037 48.4283 49.2524C48.3154 49.3011 48.1934 49.3253 48.0704 49.3232C47.8098 49.3177 47.5601 49.217 47.3687 49.04C47.1772 48.8631 47.0571 48.6222 47.0311 48.3627C47.0187 48.2406 47.0322 48.1172 47.0707 48.0007C47.1093 47.8841 47.172 47.777 47.2547 47.6864C47.3375 47.5957 47.4385 47.5235 47.5511 47.4746C47.6636 47.4256 47.7853 47.401 47.908 47.4023C48.1693 47.4057 48.4201 47.5058 48.612 47.6831C48.8039 47.8605 48.9234 48.1026 48.9474 48.3627Z" fill="white"/>
<path d="M132.537 111.383H51.9682C51.0085 111.365 50.0888 110.996 49.3832 110.345C48.6777 109.694 48.2354 108.807 48.1402 107.852L44.3539 62.64C44.3087 62.1891 44.3594 61.7337 44.5027 61.3038C44.6461 60.8739 44.8788 60.4792 45.1856 60.1457C45.4924 59.8121 45.8663 59.5473 46.2828 59.3686C46.6993 59.19 47.1488 59.1015 47.6019 59.109H128.185C129.144 59.1269 130.064 59.4963 130.77 60.1471C131.475 60.7979 131.918 61.6849 132.013 62.64L135.776 107.875C135.818 108.324 135.764 108.776 135.62 109.202C135.476 109.629 135.243 110.02 134.938 110.351C134.632 110.682 134.261 110.944 133.847 111.122C133.434 111.3 132.987 111.389 132.537 111.383Z" fill="#F0F0F0"/>
<path opacity="0.1" d="M107.611 67.0062L82.6479 97.0641C81.8633 98.008 81.3352 99.1381 81.1146 100.345C80.894 101.553 80.9883 102.797 81.3884 103.957C81.7886 105.117 82.481 106.155 83.399 106.97C84.3169 107.784 85.4294 108.349 86.629 108.608L127.136 117.364C128.403 117.639 129.721 117.564 130.948 117.146C132.176 116.729 133.266 115.986 134.103 114.996C134.94 114.006 135.492 112.806 135.699 111.527C135.906 110.247 135.761 108.935 135.279 107.731L119.749 68.9132C119.291 67.7614 118.54 66.7489 117.571 65.9753C116.602 65.2017 115.448 64.6936 114.224 64.5012C112.999 64.3088 111.745 64.4386 110.586 64.8778C109.426 65.317 108.401 66.0505 107.611 67.0062Z" fill="#263238"/>
<path opacity="0.1" d="M52.0423 71.2194L43.3469 94.6561C43.0865 95.3716 43.0115 96.1414 43.1289 96.8938C43.2462 97.6461 43.5522 98.3565 44.0182 98.9587C44.4842 99.5609 45.0951 100.035 45.7939 100.338C46.4928 100.64 47.2568 100.761 48.0147 100.688L73.4095 98.1964C74.2176 98.1174 74.9894 97.8218 75.6435 97.3407C76.2975 96.8596 76.8096 96.2108 77.1256 95.4629C77.4416 94.715 77.5498 93.8956 77.4388 93.0912C77.3278 92.2869 77.0018 91.5274 76.4951 90.893L59.7911 69.9666C59.292 69.3437 58.6366 68.8644 57.8918 68.5777C57.147 68.2909 56.3394 68.2069 55.5515 68.3343C54.7636 68.4617 54.0236 68.7959 53.4071 69.3027C52.7906 69.8096 52.3196 70.471 52.0423 71.2194Z" fill="#263238"/>
<path d="M116.223 59.4384L92.8837 93.3104C92.1547 94.3684 91.7095 95.5957 91.5906 96.875C91.4717 98.1543 91.6831 99.4427 92.2045 100.617C92.726 101.791 93.5401 102.812 94.5689 103.582C95.5977 104.351 96.8068 104.844 98.0805 105.012L140.982 110.724C142.331 110.904 143.704 110.714 144.953 110.173C146.203 109.633 147.282 108.763 148.075 107.657C148.868 106.551 149.345 105.25 149.456 103.893C149.566 102.536 149.306 101.175 148.703 99.9549L129.141 60.3571C128.56 59.184 127.683 58.1831 126.596 57.4537C125.509 56.7243 124.25 56.2917 122.945 56.1988C121.639 56.106 120.332 56.3561 119.153 56.9244C117.974 57.4926 116.964 58.3593 116.223 59.4384Z" fill="#00C2FF"/>
<path d="M99.0966 101.987C98.3217 101.882 97.585 101.587 96.9519 101.128C96.3188 100.669 95.8091 100.06 95.4681 99.3564C95.1165 98.6912 94.9512 97.9434 94.9896 97.192C95.028 96.4406 95.2686 95.7135 95.6862 95.0876L119.086 61.1135C119.509 60.5075 120.094 60.0329 120.774 59.744C121.455 59.4551 122.202 59.3637 122.932 59.4802C123.707 59.5848 124.444 59.8798 125.078 60.3389C125.711 60.798 126.22 61.4069 126.561 62.1111L146.16 101.806C146.512 102.471 146.677 103.219 146.639 103.971C146.6 104.722 146.36 105.449 145.942 106.075C145.52 106.682 144.935 107.158 144.255 107.448C143.574 107.738 142.826 107.83 142.095 107.713L99.0966 101.987Z" fill="white"/>
<path d="M120.942 71.4884L123.675 71.8504C124.529 71.9709 125.309 72.4017 125.866 73.0606C126.424 73.7196 126.719 74.5606 126.695 75.4232L126.51 78.9867C126.505 79.1159 126.491 79.2446 126.468 79.3718L124.524 90.1134C124.385 90.8537 123.962 91.5105 123.346 91.9438C122.73 92.3771 121.969 92.5528 121.225 92.4334C120.435 92.3212 119.707 91.9451 119.159 91.3663C118.61 90.7875 118.274 90.0401 118.204 89.2457L117.42 78.1468C117.411 78.0186 117.411 77.8899 117.42 77.7617L117.601 74.1936C117.621 73.7882 117.726 73.3916 117.909 73.0296C118.093 72.6676 118.35 72.3485 118.666 72.0931C118.981 71.8377 119.347 71.6519 119.739 71.5477C120.131 71.4435 120.541 71.4233 120.942 71.4884ZM120.724 95.4123L121.466 95.5097C122.231 95.6177 122.929 96.0031 123.428 96.5927C123.927 97.1822 124.191 97.9347 124.171 98.7067C124.155 99.0707 124.062 99.4272 123.898 99.7527C123.734 100.078 123.503 100.365 123.221 100.595C122.938 100.826 122.61 100.993 122.258 101.088C121.906 101.182 121.538 101.201 121.178 101.143L120.436 101.041C119.672 100.934 118.973 100.549 118.475 99.9604C117.976 99.3716 117.711 98.6198 117.731 97.8483C117.746 97.484 117.839 97.1271 118.003 96.8012C118.166 96.4754 118.397 96.1878 118.68 95.9576C118.963 95.7275 119.291 95.5598 119.643 95.4658C119.996 95.3718 120.364 95.3536 120.724 95.4123Z" fill="#00C2FF"/>
<path d="M61.0162 64.6166L54.6084 88.9163C54.4151 89.6547 54.4124 90.4301 54.6006 91.1698C54.7887 91.9095 55.1615 92.5894 55.684 93.1457C56.2065 93.7021 56.8617 94.1167 57.5881 94.3509C58.3146 94.585 59.0886 94.6309 59.8377 94.4843L84.6941 89.6355C85.4828 89.4782 86.215 89.1129 86.815 88.5774C87.415 88.042 87.8609 87.3558 88.1065 86.5901C88.3521 85.8243 88.3885 85.0069 88.212 84.2223C88.0354 83.4377 87.6523 82.7147 87.1023 82.128L68.6722 62.6632C68.1194 62.0758 67.4194 61.6473 66.6449 61.4221C65.8705 61.1969 65.0498 61.1833 64.2683 61.3827C63.4868 61.5821 62.7729 61.9872 62.201 62.556C61.6291 63.1247 61.22 63.8362 61.0162 64.6166Z" fill="#00C2FF"/>
<path d="M59.7866 92.5262C59.3302 92.6088 58.8604 92.5747 58.4207 92.4271C57.981 92.2795 57.5858 92.0231 57.2718 91.6818C56.9478 91.353 56.7136 90.9465 56.5917 90.5013C56.4699 90.0561 56.4644 89.587 56.5758 89.139L62.9975 64.7744C63.1089 64.3487 63.339 63.9634 63.661 63.6635C63.9831 63.3636 64.3838 63.1615 64.8164 63.0808C65.2732 62.9992 65.7432 63.0342 66.1828 63.1827C66.6224 63.3311 67.0175 63.5881 67.3313 63.9299L85.8263 83.4179C86.1507 83.7465 86.3855 84.1528 86.5082 84.5979C86.6308 85.0431 86.6373 85.5123 86.527 85.9606C86.4148 86.3855 86.1844 86.7698 85.8624 87.0688C85.5404 87.3678 85.1401 87.5692 84.7081 87.6496L59.7866 92.5262Z" fill="white"/>
<path d="M66.0227 70.4955L67.605 70.1846C68.1158 70.1022 68.6392 70.2115 69.0743 70.4916C69.5094 70.7717 69.8256 71.2028 69.9621 71.7019L70.5282 73.8224C70.5496 73.9003 70.5667 73.9793 70.5792 74.059L71.5861 80.736C71.6646 81.1855 71.5624 81.6478 71.3017 82.0224C71.041 82.3969 70.6429 82.6533 70.1941 82.7358C69.7235 82.814 69.2403 82.7286 68.8249 82.4939C68.4096 82.2592 68.0871 81.8894 67.9112 81.4459L65.3407 75.0984C65.3095 75.0244 65.2831 74.9484 65.2618 74.871L64.6771 72.7459C64.6011 72.5097 64.5764 72.2599 64.6045 72.0134C64.6327 71.7668 64.7132 71.5291 64.8405 71.3161C64.9679 71.1031 65.1392 70.9197 65.3431 70.7782C65.5469 70.6367 65.7787 70.5403 66.0227 70.4955ZM70.5003 84.5454L70.9319 84.4619C71.3895 84.3827 71.8602 84.4778 72.251 84.7287C72.6419 84.9795 72.9245 85.3678 73.0431 85.8168C73.1085 86.0259 73.129 86.2464 73.1035 86.464C73.0779 86.6816 73.0068 86.8914 72.8947 87.0796C72.7826 87.2679 72.6321 87.4304 72.453 87.5566C72.2739 87.6828 72.0702 87.7698 71.8552 87.812L71.4237 87.8955C70.9667 87.975 70.4966 87.8804 70.1058 87.6305C69.7151 87.3806 69.432 86.9934 69.3125 86.5453C69.2471 86.3359 69.2265 86.1151 69.252 85.8972C69.2776 85.6793 69.3486 85.4692 69.4607 85.2806C69.5727 85.092 69.7232 84.929 69.9023 84.8024C70.0814 84.6757 70.2852 84.5882 70.5003 84.5454Z" fill="#00C2FF"/>
<path d="M180.199 70.064L176.598 71.2332L179.494 74.6576C180.316 73.9455 181.027 73.1151 181.605 72.1937C181.754 71.9329 181.795 71.6237 181.719 71.333C181.643 71.0422 181.455 70.7931 181.197 70.6393L180.199 70.064Z" fill="#7F3E3B"/>
<path d="M174.942 74.0637L177.099 76.6853L179.498 74.6762L176.598 71.2518L174.942 74.0637Z" fill="#7F3E3B"/>
<path d="M181.364 42.0756C182.241 44.4884 183.048 46.9012 183.814 49.3464C184.579 51.7917 185.285 54.2463 185.902 56.8168L186.12 57.8052L186.222 58.3202L186.273 58.58V58.645V58.7424L186.301 58.9373C186.402 59.8201 186.358 60.7135 186.171 61.5821C185.875 62.9757 185.427 64.3326 184.835 65.6282C183.753 68.0493 182.422 70.3508 180.863 72.4954L178.455 71.1637C179.308 68.8437 180.153 66.4727 180.775 64.1759C181.082 63.0996 181.296 61.999 181.415 60.8861C181.454 60.5019 181.435 60.1141 181.359 59.7354L181.16 59.0116L180.9 58.1532C180.171 55.8332 179.341 53.4436 178.519 51.0679C177.698 48.6922 176.877 46.2933 176.088 43.913L181.364 42.0756Z" fill="#7F3E3B"/>
<path d="M161.324 27.7194C161.384 28.0117 161.282 28.2808 161.096 28.3319C160.911 28.3829 160.707 28.1787 160.632 27.8679C160.558 27.557 160.669 27.3064 160.86 27.26C161.05 27.2136 161.263 27.4317 161.324 27.7194Z" fill="#263238"/>
<path d="M161.31 28.2761C161.153 29.2479 160.869 30.1948 160.465 31.0926C160.693 31.1847 160.939 31.2249 161.184 31.2105C161.43 31.196 161.669 31.1273 161.885 31.0091L161.31 28.2761Z" fill="#630F0F"/>
<path d="M160.544 25.984C160.516 25.984 160.488 25.9773 160.463 25.9643C160.438 25.9514 160.416 25.9327 160.4 25.9097C160.387 25.8912 160.377 25.8702 160.372 25.848C160.367 25.8258 160.367 25.8028 160.37 25.7804C160.374 25.7579 160.383 25.7364 160.395 25.7172C160.407 25.698 160.423 25.6814 160.442 25.6685C160.675 25.5241 160.94 25.4378 161.214 25.4168C161.487 25.3958 161.762 25.4407 162.015 25.5478C162.036 25.5564 162.055 25.5692 162.071 25.5854C162.088 25.6016 162.1 25.6208 162.109 25.642C162.118 25.6632 162.122 25.6858 162.122 25.7087C162.122 25.7316 162.117 25.7542 162.108 25.7752C162.09 25.818 162.056 25.8522 162.014 25.8705C161.971 25.8887 161.923 25.8895 161.88 25.8726C161.683 25.7853 161.467 25.7469 161.251 25.7607C161.036 25.7744 160.826 25.8399 160.641 25.9515C160.614 25.9732 160.579 25.9847 160.544 25.984Z" fill="#263238"/>
<path d="M171.267 28.6381C171.592 32.0067 171.114 35.2686 171.866 38.1965C171.866 38.1965 171.03 40.9155 166.052 40.9155C160.577 40.9155 163.542 38.1965 163.542 38.1965C166.558 37.4865 166.562 35.2686 166.126 33.1853L171.267 28.6381Z" fill="#7F3E3B"/>
<path d="M172.928 39.1291C173.355 38.2707 173.638 37.0504 172.757 36.7441C171.787 36.4054 166.604 36.2801 164.725 36.9297C164.224 37.0621 163.794 37.3852 163.528 37.8299C163.262 38.2747 163.18 38.8058 163.3 39.31L172.928 39.1291Z" fill="#263238"/>
<path d="M184.115 161.328C184.457 161.24 184.787 161.112 185.099 160.948C185.116 160.94 185.13 160.927 185.14 160.912C185.149 160.896 185.155 160.878 185.155 160.86C185.154 160.84 185.148 160.822 185.136 160.807C185.124 160.792 185.108 160.781 185.09 160.776C184.927 160.72 183.489 160.242 183.108 160.567C183.067 160.603 183.036 160.65 183.019 160.702C183.002 160.755 182.999 160.81 183.011 160.864C183.018 160.961 183.05 161.055 183.104 161.136C183.157 161.217 183.231 161.283 183.317 161.328C183.576 161.418 183.857 161.418 184.115 161.328ZM184.802 160.864C184.171 161.152 183.661 161.249 183.41 161.119C183.352 161.091 183.303 161.047 183.267 160.994C183.231 160.94 183.21 160.878 183.206 160.813C183.199 160.792 183.198 160.769 183.204 160.748C183.209 160.726 183.221 160.707 183.238 160.692C183.429 160.544 184.208 160.706 184.802 160.883V160.864Z" fill="#00C2FF"/>
<path d="M185.08 160.957C185.093 160.954 185.105 160.948 185.115 160.94C185.125 160.932 185.134 160.922 185.14 160.911C185.147 160.9 185.151 160.888 185.153 160.875C185.154 160.862 185.153 160.849 185.15 160.836C185.15 160.79 184.774 159.686 184.222 159.444C184.157 159.41 184.086 159.39 184.014 159.385C183.941 159.381 183.868 159.391 183.8 159.416C183.73 159.433 183.669 159.472 183.625 159.529C183.582 159.586 183.56 159.656 183.563 159.727C183.563 160.191 184.565 160.85 185.02 160.975L185.08 160.957ZM183.92 159.565C183.999 159.547 184.081 159.557 184.152 159.593C184.507 159.881 184.767 160.269 184.899 160.706C184.435 160.498 183.776 159.969 183.767 159.699C183.767 159.676 183.767 159.621 183.879 159.574L183.92 159.565Z" fill="#00C2FF"/>
<path d="M158.772 164.163C159.124 164.153 159.474 164.105 159.816 164.019C159.834 164.014 159.851 164.004 159.864 163.99C159.877 163.976 159.886 163.959 159.89 163.941C159.892 163.922 159.888 163.903 159.88 163.886C159.872 163.868 159.859 163.854 159.844 163.843C159.7 163.755 158.41 162.961 157.964 163.189C157.915 163.214 157.873 163.253 157.845 163.3C157.816 163.348 157.801 163.402 157.802 163.458C157.792 163.551 157.804 163.645 157.838 163.732C157.872 163.819 157.927 163.897 157.997 163.959C158.226 164.11 158.498 164.182 158.772 164.163ZM159.542 163.885C158.864 164.019 158.34 163.996 158.122 163.811C158.073 163.769 158.036 163.716 158.013 163.656C157.99 163.596 157.983 163.531 157.992 163.467C157.992 163.393 158.025 163.37 158.052 163.356C158.28 163.24 159.018 163.579 159.542 163.885Z" fill="#00C2FF"/>
<path d="M159.792 164.019C159.811 164.024 159.83 164.024 159.848 164.019C159.862 164.009 159.873 163.996 159.88 163.981C159.887 163.965 159.891 163.948 159.89 163.931C159.89 163.885 159.788 162.729 159.324 162.349C159.269 162.301 159.205 162.265 159.135 162.244C159.065 162.223 158.992 162.218 158.92 162.228C158.849 162.228 158.78 162.252 158.725 162.297C158.67 162.342 158.632 162.405 158.618 162.474C158.535 162.938 159.333 163.797 159.751 164.024L159.792 164.019ZM158.985 162.4C159.065 162.399 159.143 162.427 159.203 162.479C159.481 162.842 159.642 163.28 159.667 163.736C159.254 163.421 158.739 162.762 158.795 162.497C158.795 162.497 158.795 162.414 158.934 162.4H158.976H158.985Z" fill="#00C2FF"/>
<path d="M164.103 163.875H160.437L160.4 155.394H164.066L164.103 163.875Z" fill="#7F3E3B"/>
<path d="M189.618 160.739L186.092 161.384L183.563 153.036L187.089 152.391L189.618 160.739Z" fill="#7F3E3B"/>
<path d="M185.424 160.447L189.428 159.519C189.498 159.501 189.571 159.509 189.635 159.541C189.7 159.572 189.751 159.625 189.781 159.69L191.108 162.72C191.14 162.796 191.154 162.878 191.151 162.96C191.148 163.042 191.127 163.122 191.089 163.195C191.052 163.268 190.999 163.332 190.934 163.382C190.869 163.432 190.793 163.468 190.713 163.486C189.321 163.792 188.616 163.866 186.853 164.284C185.772 164.539 183.563 165.184 182.064 165.537C180.566 165.889 180.083 164.442 180.672 164.145C183.299 162.887 184.171 161.825 184.89 160.804C185.02 160.625 185.209 160.498 185.424 160.447Z" fill="#263238"/>
<path d="M160.479 163.449H164.479C164.551 163.449 164.62 163.474 164.675 163.519C164.73 163.565 164.767 163.629 164.78 163.699L165.379 166.947C165.393 167.027 165.39 167.11 165.369 167.188C165.347 167.267 165.309 167.34 165.256 167.402C165.203 167.464 165.138 167.514 165.063 167.548C164.989 167.581 164.908 167.598 164.827 167.597C163.384 167.574 161.305 167.49 159.491 167.49C157.37 167.49 156.614 167.606 154.127 167.606C152.624 167.606 152.271 166.084 152.902 165.95C155.788 165.319 157.05 165.254 159.588 163.727C159.854 163.554 160.162 163.458 160.479 163.449Z" fill="#263238"/>
<path d="M180.032 39.1431C183.452 41.5512 184.482 47.7503 184.482 47.7503L176.733 51.6757C175.508 49.2257 174.558 46.647 173.903 43.9872C173.072 40.3216 177.601 37.4355 180.032 39.1431Z" fill="#00C2FF"/>
<path opacity="0.2" d="M176.158 43.0963L179.211 50.409L176.733 51.6757C175.965 50.1232 175.296 48.5238 174.729 46.8872L176.158 43.0963Z" fill="black"/>
<path d="M157.245 55.216C157.273 59.3038 157.519 64.3893 158.127 70.6997H177.712C177.949 67.8229 176.747 54.2602 179.666 40.6789C179.717 40.4397 179.719 40.1925 179.672 39.9525C179.624 39.7125 179.529 39.4847 179.39 39.2831C179.251 39.0815 179.073 38.9103 178.866 38.7801C178.659 38.6499 178.427 38.5634 178.185 38.5259C176.648 38.28 175.1 38.1143 173.545 38.0294C170.771 37.8693 167.991 37.8693 165.217 38.0294C164.097 38.1265 162.984 38.2813 161.88 38.4934C161.06 38.6602 160.303 39.0552 159.697 39.6331C159.092 40.211 158.661 40.9483 158.456 41.76C157.847 44.2624 157.488 46.8193 157.384 49.3928C157.296 51.0632 157.231 52.9981 157.245 55.216Z" fill="#00C2FF"/>
<path opacity="0.2" d="M163.426 47.5414C162.131 48.4694 159.653 48.9334 157.394 49.1237C157.431 48.5251 157.477 47.959 157.528 47.4254C158.136 47.1053 158.721 46.8129 159.273 46.5438L163.426 47.5414Z" fill="black"/>
<g opacity="0.2">
<path d="M160.4 155.394L160.423 160.108H164.084L164.066 155.394H160.4Z" fill="black"/>
<path d="M187.089 152.391L183.563 153.041L184.871 157.342L188.398 156.693L187.089 152.391Z" fill="black"/>
</g>
<path d="M170.752 24.6941C171.286 28.2994 171.782 30.3781 170.39 32.6517C169.948 33.391 169.312 33.9955 168.552 34.3995C167.791 34.8036 166.934 34.9919 166.074 34.9441C165.214 34.8963 164.383 34.6143 163.672 34.1284C162.96 33.6426 162.396 32.9715 162.038 32.1877C160.604 29.1902 159.969 23.7939 163.11 21.5157C163.776 21.0062 164.565 20.6811 165.397 20.5729C166.228 20.4647 167.074 20.5773 167.848 20.8994C168.623 21.2215 169.299 21.7417 169.808 22.4078C170.318 23.0739 170.644 23.8624 170.752 24.6941Z" fill="#7F3E3B"/>
<path d="M163.254 27.3296C161.894 26.731 162.024 24.592 162.437 23.6918C160.864 24.2301 158.591 24.541 158.182 22.9402C157.774 21.3394 159.161 20.829 158.312 19.4602C157.463 18.0914 160.168 16.6019 161.43 18.5322C162.692 20.4624 165.811 19.5994 167.824 17.7573C169.291 16.4163 171.434 18.147 170.585 19.8963C170.585 19.8963 174.993 19.6133 174.116 22.6061C173.239 25.5989 172 25.701 172.283 27.8307C172.478 29.2691 172.645 32.1923 170.919 32.6053C168.831 33.0832 163.625 31.2318 163.254 27.3296Z" fill="#263238"/>
<path opacity="0.2" d="M163.226 31.2319C162.827 31.5196 162.414 31.8258 161.992 32.1599L162.015 32.2109C162.427 33.0804 163.087 33.8085 163.913 34.3036C164.177 34.0484 164.326 33.19 164.817 33.2039C166.288 33.2456 169.133 32.6285 169.606 30.9674L163.226 31.2319Z" fill="black"/>
<path d="M164.372 27.2786C164.474 28.0802 164.351 28.8944 164.019 29.6311C163.602 30.4802 162.943 29.9373 162.688 28.8933C162.456 27.9653 162.395 26.3831 162.999 25.9191C163.602 25.4551 164.256 26.2207 164.372 27.2786Z" fill="#7F3E3B"/>
<path d="M165.077 70.7136C165.077 70.7136 168.154 98.7021 170.028 109.189C172.084 120.673 182.728 156.716 182.728 156.716L189.289 155.324C189.289 155.324 181.962 121.601 180.96 110.233C179.888 97.8901 177.712 70.7136 177.712 70.7136H165.077Z" fill="#00C2FF"/>
<path opacity="0.3" d="M165.077 70.7136C165.077 70.7136 168.154 98.7021 170.028 109.189C172.084 120.673 182.728 156.716 182.728 156.716L189.289 155.324C189.289 155.324 181.962 121.601 180.96 110.233C179.939 98.5026 179.939 98.5258 177.712 70.7136H165.077Z" fill="black"/>
<path d="M181.262 154.512C181.234 154.512 182.375 156.906 182.375 156.906L189.776 155.324L189.252 153.088L181.262 154.512Z" fill="#263238"/>
<path opacity="0.2" d="M167.318 80.6896C172.088 81.6176 170.887 99.5512 169.954 108.771C168.822 102.275 167.277 89.7144 166.242 80.8196C166.575 80.6538 166.955 80.6079 167.318 80.6896Z" fill="black"/>
<path d="M158.127 70.7136C158.127 70.7136 156.568 98.0896 156.535 109.267C156.498 120.867 159.087 158.915 159.087 158.915H165.295C165.295 158.915 166.966 121.559 167.68 110.149C168.46 97.7092 171.007 70.709 171.007 70.709L158.127 70.7136Z" fill="#00C2FF"/>
<path opacity="0.3" d="M158.127 70.7136C158.127 70.7136 156.568 98.0896 156.535 109.267C156.498 120.867 159.087 158.915 159.087 158.915H165.295C165.295 158.915 166.966 121.559 167.68 110.149C168.46 97.7092 171.007 70.709 171.007 70.709L158.127 70.7136Z" fill="black"/>
<path d="M157.992 156.452C157.964 156.452 158.243 159.027 158.243 159.027H165.787L166.079 156.707L157.992 156.452Z" fill="#263238"/>
<path d="M165.889 44.8874C165.147 44.957 164.521 44.9987 163.838 45.0173C163.156 45.0359 162.507 45.0498 161.843 45.0451C160.507 45.0451 159.171 44.9616 157.825 44.8131C156.459 44.6723 155.104 44.4398 153.77 44.1171C152.356 43.785 150.984 43.2979 149.677 42.6648L149.524 42.5859C149.238 42.446 148.981 42.2508 148.771 42.0116C148.56 41.7723 148.399 41.4937 148.296 41.1918C148.193 40.8899 148.151 40.5706 148.173 40.2525C148.194 39.9343 148.278 39.6235 148.42 39.3379C148.484 39.2063 148.561 39.0805 148.647 38.9621C149.201 38.2281 149.831 37.5547 150.526 36.953C151.153 36.3962 151.779 35.8997 152.41 35.4264C153.672 34.4752 154.962 33.6354 156.257 32.8187C157.551 32.0021 158.874 31.2458 160.205 30.4987C161.537 29.7517 162.878 29.0789 164.27 28.4339C164.576 28.3116 164.915 28.3018 165.228 28.4063C165.541 28.5107 165.806 28.7227 165.977 29.0044C166.148 29.2862 166.213 29.6194 166.161 29.9449C166.11 30.2703 165.944 30.5669 165.694 30.7818C164.53 31.6773 163.328 32.5635 162.163 33.473C160.999 34.3824 159.843 35.2779 158.688 36.1967C157.533 37.1154 156.433 38.0527 155.38 38.9807C154.855 39.4447 154.35 39.9087 153.9 40.4144C153.495 40.8257 153.128 41.273 152.805 41.7507L151.779 38.0387C152.79 38.4138 153.834 38.6919 154.897 38.8693C156.035 39.0626 157.183 39.1958 158.335 39.2683C159.509 39.3426 160.697 39.3843 161.89 39.3843C162.488 39.3843 163.087 39.3843 163.681 39.3843C164.275 39.3843 164.901 39.3379 165.421 39.3101H165.481C166.183 39.3094 166.859 39.5737 167.374 40.0503C167.889 40.5268 168.206 41.1803 168.26 41.88C168.314 42.5798 168.101 43.2741 167.665 43.8239C167.229 44.3738 166.602 44.7387 165.908 44.8456L165.889 44.8874Z" fill="#7F3E3B"/>
<path d="M168.488 27.7101L166.168 28.2252C166.168 28.2252 163.064 27.84 162.354 30.1786L164.21 31.7469L167.049 32.2109C167.499 32.2808 167.959 32.2061 168.363 31.9975L169.086 31.6216C169.251 31.5369 169.392 31.4122 169.495 31.259C169.599 31.1058 169.663 30.9289 169.68 30.7447L169.852 28.8887C169.869 28.7129 169.844 28.5356 169.778 28.3717C169.712 28.2078 169.608 28.062 169.475 27.9465C169.341 27.8311 169.182 27.7494 169.01 27.7082C168.838 27.6671 168.659 27.6677 168.488 27.7101Z" fill="#7F3E3B"/>
<path d="M163.959 47.5971C160.057 48.6829 155.607 47.328 155.607 47.328L157.245 38.5909C157.245 38.5909 161.12 38.2475 163.542 38.1965C169.773 38.048 170.993 45.6483 163.959 47.5971Z" fill="#00C2FF"/>
</svg>
