<svg width="153" height="66" viewBox="0 0 153 66" fill="none" xmlns="http://www.w3.org/2000/svg">
<path d="M32.1099 34.4375C31.9431 34.4479 31.7666 34.4533 31.5796 34.4533H30.7745C29.358 34.4533 27.9647 34.852 26.9105 35.8499C25.8443 36.859 25.4205 38.202 25.4205 39.4915C25.4205 41.1193 26.1592 42.4981 27.4385 43.371C28.5976 44.1619 30.0079 44.4139 31.3064 44.4139C31.34 44.4139 31.3736 44.4137 31.407 44.4134C30.098 45.091 28.5523 45.5136 26.8642 45.5136C24.7391 45.5136 23.08 45.0036 22.0085 44.1707C21.0269 43.4078 20.3004 42.1968 20.3004 40.1421C20.3004 38.4308 20.8873 37.1175 21.987 36.1895C23.1349 35.2209 25.1238 34.438 28.3306 34.438H31.9677C32.0153 34.438 32.0627 34.4379 32.1099 34.4375ZM28.4098 24.5219C27.4449 25.3109 26.7633 26.3179 26.3314 27.4702H21.3404C21.9663 25.5931 23.0218 24.1377 24.4266 23.055C26.4864 21.4674 29.5539 20.4862 33.7503 20.4862C37.8539 20.4862 40.7793 21.4042 42.6194 22.798C44.3716 24.1253 45.3601 26.0428 45.3601 28.6914V44.6461H40.4557V40.9083V38.4871H39.7766C40.2161 37.3589 40.4557 36.1286 40.4557 34.8505V32.6674V30.2461H40.1614C40.3787 29.6028 40.4557 28.971 40.4557 28.4168C40.4557 26.9959 39.9021 25.5066 38.6169 24.4088C37.3599 23.3352 35.6516 22.8437 33.6928 22.8437C31.7819 22.8437 29.9039 23.3001 28.4098 24.5219Z" fill="white" stroke="white" stroke-width="4.84252"/>
<path d="M62.6606 47.9927V57.1156C62.6606 60.3541 60.0298 62.9999 56.8096 62.9999H47.7383" stroke="white" stroke-width="4.84252" stroke-linecap="round" stroke-linejoin="round"/>
<path d="M47.7383 3H56.8096C60.0298 3 62.6606 5.64578 62.6606 8.88434V18.0072" stroke="white" stroke-width="4.84252" stroke-linecap="round" stroke-linejoin="round"/>
<path d="M17.9224 62.9999H8.85106C5.63082 62.9999 3 60.3541 3 57.1156V47.9927" stroke="white" stroke-width="4.84252" stroke-linecap="round" stroke-linejoin="round"/>
<path d="M17.9224 3H8.85106C5.63082 3 3 5.64578 3 8.88434V18.0072" stroke="white" stroke-width="4.84252" stroke-linecap="round" stroke-linejoin="round"/>
<path d="M60.835 43.2217C63.5952 43.2217 65.5503 41.8193 66.341 39.3181H66.5135L66.6285 42.7735H71.7464V28.0265H66.5135V35.8048C66.5135 38.0892 65.4641 39.3181 63.5377 39.3181C61.5969 39.3181 60.5762 38.0892 60.5762 35.8048V28.0265H55.3577V37.3663C55.3577 41.3133 58.0747 43.2217 60.835 43.2217ZM74.0178 31.0627H76.088V37.7422C76.088 41.4868 77.77 43.0482 81.7378 43.0482C82.8735 43.0482 84.153 42.8313 85.4899 42.3398V38.7109C84.6705 38.9422 83.8654 39.0868 83.276 39.0868C81.7953 39.0868 81.3065 38.5374 81.3065 36.947V31.0627H85.5187V28.0265H81.1771V24.1807H76.088V28.0265H74.0178V31.0627ZM88.0776 42.7735H93.2961V34.9952C93.2961 32.7109 94.3456 31.4819 96.2864 31.4819C98.2128 31.4819 99.2335 32.7109 99.2335 34.9952V42.7735H104.466V33.4337C104.466 29.4868 101.735 27.5783 98.9747 27.5783C96.2289 27.5783 94.2593 28.9663 93.4687 31.4819H93.2961V22.7783H88.0776V42.7735ZM115.248 43.2217C117.98 43.2217 122.005 41.7181 122.523 37.6843H118.181C117.865 38.7398 116.7 39.4482 115.248 39.4482C113.322 39.4482 112.014 38.2771 111.928 36.5133H122.58C122.638 36.0506 122.666 35.6313 122.666 35.1687C122.666 30.7157 119.432 27.5783 114.889 27.5783C110.001 27.5783 107.011 30.8024 107.011 35.3422C107.011 40.3446 110.087 43.2217 115.248 43.2217ZM111.928 33.9398C112.043 32.3494 113.178 31.3374 114.918 31.3374C116.499 31.3374 117.52 32.3494 117.635 33.9398H111.928ZM132.715 43.2217C136.439 43.2217 139.961 41.2554 140.22 36.7446H135.073C134.987 38.6241 134.311 39.4482 132.687 39.4482C131.105 39.4482 130.099 38.3928 130.099 35.2265C130.099 32.7109 130.961 31.3374 132.687 31.3374C133.937 31.3374 134.901 31.9735 135.044 33.7663H140.191C139.817 29.8627 136.928 27.5783 132.715 27.5783C128.288 27.5783 124.794 30.253 124.794 35.2843C124.794 41.1687 128.633 43.2217 132.715 43.2217ZM141.499 31.0627H143.569V37.7422C143.569 41.4868 145.237 43.0482 149.219 43.0482C150.355 43.0482 151.634 42.8313 152.971 42.3398V38.7109C152.152 38.9422 151.347 39.0868 150.757 39.0868C149.277 39.0868 148.788 38.5374 148.788 36.947V31.0627H153V28.0265H148.658V24.1807H143.569V28.0265H141.499V31.0627Z" fill="white"/>
</svg>
