<svg width="129" height="54" viewBox="0 0 129 54" fill="none" xmlns="http://www.w3.org/2000/svg">
<path d="M16.7951 22.8682C17.3092 20.8362 18.3422 19.2722 19.8055 18.1444C21.6739 16.7044 24.4021 15.8551 28.0354 15.8551C31.5818 15.8551 34.1909 16.6471 35.8766 17.924C37.5079 19.1597 38.415 20.951 38.415 23.3522V37.4105H33.1626V33.6958V32.1958H32.2873C32.848 31.1134 33.1626 29.874 33.1626 28.5669V26.7185V25.2185H32.6102C33.032 24.504 33.1626 23.7507 33.1626 23.1196C33.1626 22.0604 32.7518 20.9588 31.7985 20.1445C30.8626 19.3451 29.5578 18.9511 27.9867 18.9511C26.4518 18.9511 24.9994 19.3176 23.8619 20.2478C23.0349 20.924 22.4715 21.8185 22.1471 22.8682H16.7951ZM26.5261 27.6676C27.6731 27.6676 28.6634 27.5563 29.5071 27.3355C29.2877 27.6961 29.0271 27.9624 28.7358 28.1622C28.1986 28.5307 27.3989 28.7806 26.1975 28.7806H25.5158C24.4162 28.7806 23.3865 29.0892 22.6224 29.8124C21.8509 30.5427 21.5328 31.5233 21.5328 32.4962C21.5328 33.6952 22.0704 34.6914 23.0014 35.3266C23.8578 35.911 24.9282 36.1139 25.9662 36.1139C26.7936 36.1139 27.5809 35.9731 28.3103 35.7144C26.8606 37.1232 24.6936 38.1449 22.2051 38.1449C20.3285 38.1449 18.7905 37.696 17.7564 36.8922C16.7781 36.1318 16.0978 34.9391 16.0978 33.0471C16.0978 31.4598 16.6492 30.1848 17.7211 29.2802C18.8228 28.3505 20.6485 27.6676 23.4466 27.6676H26.5261Z" fill="#00C2FF" stroke="#011B78" stroke-width="3"/>
<path d="M52.5128 39.6938V47.4179C52.5128 50.1599 50.2853 52.4 47.5589 52.4H39.8785" stroke="#011B78" stroke-width="3" stroke-linecap="round" stroke-linejoin="round"/>
<path d="M39.8785 1.6001H47.5589C50.2853 1.6001 52.5128 3.84019 52.5128 6.58217V14.3062" stroke="#011B78" stroke-width="3" stroke-linecap="round" stroke-linejoin="round"/>
<path d="M14.6343 52.4H6.9539C4.22743 52.4 2 50.1599 2 47.4179V39.6938" stroke="#011B78" stroke-width="3" stroke-linecap="round" stroke-linejoin="round"/>
<path d="M14.6343 1.6001H6.9539C4.22743 1.6001 2 3.84019 2 6.58217V14.3062" stroke="#011B78" stroke-width="3" stroke-linecap="round" stroke-linejoin="round"/>
<path d="M50.967 35.6546C53.3039 35.6546 54.9593 34.4672 55.6287 32.3495H55.7748L55.8722 35.2751H60.2053V22.7893H55.7748V29.3749C55.7748 31.309 54.8863 32.3495 53.2553 32.3495C51.6121 32.3495 50.7479 31.309 50.7479 29.3749V22.7893H46.3295V30.697C46.3295 34.0387 48.63 35.6546 50.967 35.6546ZM62.1285 25.3599H63.8812V31.0152C63.8812 34.1856 65.3053 35.5077 68.6647 35.5077C69.6262 35.5077 70.7095 35.324 71.8415 34.9079V31.8354C71.1477 32.0312 70.4661 32.1536 69.9671 32.1536C68.7134 32.1536 68.2995 31.6885 68.2995 30.342V25.3599H71.8659V22.7893H68.19V19.5332H63.8812V22.7893H62.1285V25.3599ZM74.0324 35.2751H78.4508V28.6894C78.4508 26.7554 79.3393 25.7149 80.9825 25.7149C82.6135 25.7149 83.4777 26.7554 83.4777 28.6894V35.2751H87.9082V27.3674C87.9082 24.0256 85.5956 22.4098 83.2586 22.4098C80.9338 22.4098 79.2663 23.585 78.5968 25.7149H78.4508V18.3458H74.0324V35.2751ZM97.037 35.6546C99.3497 35.6546 102.758 34.3815 103.196 30.9663H99.5201C99.2523 31.8599 98.2664 32.4597 97.037 32.4597C95.406 32.4597 94.2984 31.4681 94.2253 29.9747H103.245C103.293 29.583 103.318 29.228 103.318 28.8363C103.318 25.0661 100.579 22.4098 96.7327 22.4098C92.5943 22.4098 90.0626 25.1396 90.0626 28.9832C90.0626 33.2186 92.6674 35.6546 97.037 35.6546ZM94.2253 27.7959C94.3227 26.4493 95.2843 25.5925 96.7571 25.5925C98.096 25.5925 98.9602 26.4493 99.0575 27.7959H94.2253ZM111.826 35.6546C114.978 35.6546 117.96 33.9898 118.179 30.1706H113.822C113.749 31.7619 113.177 32.4597 111.801 32.4597C110.462 32.4597 109.61 31.5661 109.61 28.8853C109.61 26.7554 110.341 25.5925 111.801 25.5925C112.86 25.5925 113.676 26.1311 113.798 27.649H118.155C117.839 24.3439 115.392 22.4098 111.826 22.4098C108.077 22.4098 105.119 24.6744 105.119 28.9343C105.119 33.9163 108.369 35.6546 111.826 35.6546ZM119.263 25.3599H121.015V31.0152C121.015 34.1856 122.427 35.5077 125.799 35.5077C126.76 35.5077 127.844 35.324 128.976 34.9079V31.8354C128.282 32.0312 127.6 32.1536 127.101 32.1536C125.848 32.1536 125.434 31.6885 125.434 30.342V25.3599H129V22.7893H125.324V19.5332H121.015V22.7893H119.263V25.3599Z" fill="#00C2FF"/>
</svg>
