<svg width="129" height="54" viewBox="0 0 129 54" fill="none" xmlns="http://www.w3.org/2000/svg">
<path d="M16.795 22.8683C17.309 20.8363 18.3421 19.2723 19.8054 18.1445C21.6738 16.7045 24.402 15.8552 28.0353 15.8552C31.5817 15.8552 34.1907 16.6473 35.8765 17.9241C37.5078 19.1598 38.4149 20.9512 38.4149 23.3523V37.4106H33.1624V33.6959V32.1959H32.2872C32.8479 31.1135 33.1624 29.8741 33.1624 28.567V26.7186V25.2186H32.6101C33.0319 24.5042 33.1624 23.7509 33.1624 23.1198C33.1624 22.0605 32.7517 20.9589 31.7984 20.1446C30.8625 19.3452 29.5576 18.9512 27.9866 18.9512C26.4517 18.9512 24.9993 19.3177 23.8617 20.2479C23.0348 20.9241 22.4714 21.8186 22.147 22.8683H16.795ZM26.526 27.6678C27.673 27.6678 28.6633 27.5564 29.507 27.3356C29.2876 27.6962 29.027 27.9626 28.7357 28.1624C28.1985 28.5308 27.3988 28.7807 26.1973 28.7807H25.5157C24.4161 28.7807 23.3864 29.0893 22.6223 29.8126C21.8507 30.5429 21.5327 31.5234 21.5327 32.4963C21.5327 33.6953 22.0703 34.6915 23.0012 35.3267C23.8577 35.9111 24.9281 36.114 25.9661 36.114C26.7935 36.114 27.5808 35.9732 28.3102 35.7146C26.8605 37.1233 24.6935 38.1451 22.205 38.1451C20.3284 38.1451 18.7903 37.6961 17.7563 36.8924C16.7779 36.1319 16.0977 34.9392 16.0977 33.0472C16.0977 31.4599 16.649 30.1849 17.721 29.2803C18.8227 28.3506 20.6484 27.6678 23.4465 27.6678H26.526Z" fill="#00C2FF" stroke="#00C2FF" stroke-width="3"/>
<path d="M52.5127 39.6941V47.4181C52.5127 50.1601 50.2853 52.4002 47.5588 52.4002H39.8784" stroke="#011B78" stroke-width="3" stroke-linecap="round" stroke-linejoin="round"/>
<path d="M39.8784 1.6001H47.5588C50.2853 1.6001 52.5127 3.84019 52.5127 6.58217V14.3062" stroke="#011B78" stroke-width="3" stroke-linecap="round" stroke-linejoin="round"/>
<path d="M14.6343 52.4002H6.9539C4.22743 52.4002 2 50.1601 2 47.4181V39.6941" stroke="#011B78" stroke-width="3" stroke-linecap="round" stroke-linejoin="round"/>
<path d="M14.6343 1.6001H6.9539C4.22743 1.6001 2 3.84019 2 6.58217V14.3062" stroke="#011B78" stroke-width="3" stroke-linecap="round" stroke-linejoin="round"/>
<path d="M50.967 35.6544C53.304 35.6544 54.9594 34.4671 55.6288 32.3494H55.7749L55.8722 35.275H60.2054V22.7892H55.7749V29.3748C55.7749 31.3089 54.8863 32.3494 53.2553 32.3494C51.6121 32.3494 50.7479 31.3089 50.7479 29.3748V22.7892H46.3296V30.6968C46.3296 34.0386 48.63 35.6544 50.967 35.6544ZM62.1285 25.3598H63.8812V31.0151C63.8812 34.1855 65.3053 35.5075 68.6647 35.5075C69.6263 35.5075 70.7096 35.3239 71.8416 34.9077V31.8352C71.1478 32.0311 70.4662 32.1535 69.9671 32.1535C68.7134 32.1535 68.2996 31.6884 68.2996 30.3418V25.3598H71.8659V22.7892H68.19V19.5331H63.8812V22.7892H62.1285V25.3598ZM74.0325 35.275H78.4508V28.6893C78.4508 26.7552 79.3394 25.7148 80.9825 25.7148C82.6136 25.7148 83.4778 26.7552 83.4778 28.6893V35.275H87.9083V27.3673C87.9083 24.0255 85.5956 22.4097 83.2587 22.4097C80.9339 22.4097 79.2663 23.5848 78.5969 25.7148H78.4508V18.3457H74.0325V35.275ZM97.0371 35.6544C99.3497 35.6544 102.758 34.3814 103.196 30.9661H99.5201C99.2523 31.8597 98.2664 32.4595 97.0371 32.4595C95.4061 32.4595 94.2984 31.468 94.2254 29.9746H103.245C103.293 29.5829 103.318 29.2279 103.318 28.8362C103.318 25.066 100.579 22.4097 96.7328 22.4097C92.5944 22.4097 90.0627 25.1394 90.0627 28.9831C90.0627 33.2185 92.6674 35.6544 97.0371 35.6544ZM94.2254 27.7957C94.3228 26.4492 95.2843 25.5924 96.7571 25.5924C98.096 25.5924 98.9602 26.4492 99.0576 27.7957H94.2254ZM111.826 35.6544C114.978 35.6544 117.96 33.9897 118.179 30.1705H113.822C113.749 31.7618 113.177 32.4595 111.801 32.4595C110.463 32.4595 109.61 31.5659 109.61 28.8852C109.61 26.7552 110.341 25.5924 111.801 25.5924C112.86 25.5924 113.676 26.131 113.798 27.6488H118.155C117.839 24.3438 115.392 22.4097 111.826 22.4097C108.077 22.4097 105.119 24.6743 105.119 28.9341C105.119 33.9162 108.369 35.6544 111.826 35.6544ZM119.263 25.3598H121.015V31.0151C121.015 34.1855 122.427 35.5075 125.799 35.5075C126.76 35.5075 127.844 35.3239 128.976 34.9077V31.8352C128.282 32.0311 127.6 32.1535 127.101 32.1535C125.848 32.1535 125.434 31.6884 125.434 30.3418V25.3598H129V22.7892H125.324V19.5331H121.015V22.7892H119.263V25.3598Z" fill="#00C2FF"/>
</svg>
